<svg xmlns="http://www.w3.org/2000/svg" viewBox="0 0 760 330" width="760" height="330" font-family="-apple-system, BlinkMacSystemFont, 'Segoe UI', Helvetica, Arial, sans-serif" role="img">
<rect x="0.0" y="0.0" width="760.0" height="330.0" rx="8" fill="#fcfcfb" fill-opacity="1.0"/>
<text x="24.0" y="30.0" font-size="15" font-weight="600" text-anchor="start" fill="#0b0b0b">The seeded build sends ObstacleDistance every 26 ms, outside the allowed band</text>
<text x="24.0" y="50.0" font-size="12" font-weight="400" text-anchor="start" fill="#52514e">Gap between consecutive frames on the simulated bus (NET-01: nominal 20 ms, tolerance 10 %)</text>
<rect x="64.0" y="180.0" width="492.0" height="48.0" rx="0" fill="#2a78d6" fill-opacity="0.1"/>
<line x1="64.0" y1="276.0" x2="556.0" y2="276.0" stroke="#e4e3df" stroke-width="1" stroke-linecap="round"/>
<text x="54.0" y="280.0" font-size="11" font-weight="400" text-anchor="end" fill="#52514e">14</text>
<line x1="64.0" y1="228.0" x2="556.0" y2="228.0" stroke="#e4e3df" stroke-width="1" stroke-linecap="round"/>
<text x="54.0" y="232.0" font-size="11" font-weight="400" text-anchor="end" fill="#52514e">18</text>
<line x1="64.0" y1="180.0" x2="556.0" y2="180.0" stroke="#e4e3df" stroke-width="1" stroke-linecap="round"/>
<text x="54.0" y="184.0" font-size="11" font-weight="400" text-anchor="end" fill="#52514e">22</text>
<line x1="64.0" y1="132.0" x2="556.0" y2="132.0" stroke="#e4e3df" stroke-width="1" stroke-linecap="round"/>
<text x="54.0" y="136.0" font-size="11" font-weight="400" text-anchor="end" fill="#52514e">26</text>
<line x1="64.0" y1="84.0" x2="556.0" y2="84.0" stroke="#e4e3df" stroke-width="1" stroke-linecap="round"/>
<text x="54.0" y="88.0" font-size="11" font-weight="400" text-anchor="end" fill="#52514e">30</text>
<text x="64.0" y="296.0" font-size="11" font-weight="400" text-anchor="middle" fill="#52514e">0</text>
<text x="187.0" y="296.0" font-size="11" font-weight="400" text-anchor="middle" fill="#52514e">100</text>
<text x="310.0" y="296.0" font-size="11" font-weight="400" text-anchor="middle" fill="#52514e">200</text>
<text x="433.0" y="296.0" font-size="11" font-weight="400" text-anchor="middle" fill="#52514e">300</text>
<text x="556.0" y="296.0" font-size="11" font-weight="400" text-anchor="middle" fill="#52514e">400</text>
<text x="20.0" y="70.0" font-size="11" font-weight="400" text-anchor="start" fill="#52514e">gap (ms)</text>
<text x="556.0" y="314.0" font-size="11" font-weight="400" text-anchor="end" fill="#52514e">time on the bus (ms)</text>
<polyline points="113.2,204.0 137.8,204.0 162.4,204.0 187.0,204.0 211.6,204.0 236.2,204.0 260.8,204.0 285.4,204.0 310.0,204.0 334.6,204.0 359.2,204.0 383.8,204.0 408.4,204.0 433.0,204.0 457.6,204.0 482.2,204.0 506.8,204.0 531.4,204.0 556.0,204.0" fill="none" stroke="#2a78d6" stroke-width="2" stroke-linejoin="round" stroke-linecap="round"/>
<circle cx="113.2" cy="204.0" r="4" fill="#2a78d6" stroke="#fcfcfb" stroke-width="2"/>
<circle cx="137.8" cy="204.0" r="4" fill="#2a78d6" stroke="#fcfcfb" stroke-width="2"/>
<circle cx="162.4" cy="204.0" r="4" fill="#2a78d6" stroke="#fcfcfb" stroke-width="2"/>
<circle cx="187.0" cy="204.0" r="4" fill="#2a78d6" stroke="#fcfcfb" stroke-width="2"/>
<circle cx="211.6" cy="204.0" r="4" fill="#2a78d6" stroke="#fcfcfb" stroke-width="2"/>
<circle cx="236.2" cy="204.0" r="4" fill="#2a78d6" stroke="#fcfcfb" stroke-width="2"/>
<circle cx="260.8" cy="204.0" r="4" fill="#2a78d6" stroke="#fcfcfb" stroke-width="2"/>
<circle cx="285.4" cy="204.0" r="4" fill="#2a78d6" stroke="#fcfcfb" stroke-width="2"/>
<circle cx="310.0" cy="204.0" r="4" fill="#2a78d6" stroke="#fcfcfb" stroke-width="2"/>
<circle cx="334.6" cy="204.0" r="4" fill="#2a78d6" stroke="#fcfcfb" stroke-width="2"/>
<circle cx="359.2" cy="204.0" r="4" fill="#2a78d6" stroke="#fcfcfb" stroke-width="2"/>
<circle cx="383.8" cy="204.0" r="4" fill="#2a78d6" stroke="#fcfcfb" stroke-width="2"/>
<circle cx="408.4" cy="204.0" r="4" fill="#2a78d6" stroke="#fcfcfb" stroke-width="2"/>
<circle cx="433.0" cy="204.0" r="4" fill="#2a78d6" stroke="#fcfcfb" stroke-width="2"/>
<circle cx="457.6" cy="204.0" r="4" fill="#2a78d6" stroke="#fcfcfb" stroke-width="2"/>
<circle cx="482.2" cy="204.0" r="4" fill="#2a78d6" stroke="#fcfcfb" stroke-width="2"/>
<circle cx="506.8" cy="204.0" r="4" fill="#2a78d6" stroke="#fcfcfb" stroke-width="2"/>
<circle cx="531.4" cy="204.0" r="4" fill="#2a78d6" stroke="#fcfcfb" stroke-width="2"/>
<circle cx="556.0" cy="204.0" r="4" fill="#2a78d6" stroke="#fcfcfb" stroke-width="2"/>
<polyline points="128.0,132.0 159.9,132.0 191.9,132.0 223.9,132.0 255.9,132.0 287.9,132.0 319.8,132.0 351.8,132.0 383.8,132.0 415.8,132.0 447.8,132.0 479.7,132.0 511.7,132.0 543.7,132.0" fill="none" stroke="#eb6834" stroke-width="2" stroke-linejoin="round" stroke-linecap="round"/>
<circle cx="128.0" cy="132.0" r="4" fill="#eb6834" stroke="#fcfcfb" stroke-width="2"/>
<circle cx="159.9" cy="132.0" r="4" fill="#eb6834" stroke="#fcfcfb" stroke-width="2"/>
<circle cx="191.9" cy="132.0" r="4" fill="#eb6834" stroke="#fcfcfb" stroke-width="2"/>
<circle cx="223.9" cy="132.0" r="4" fill="#eb6834" stroke="#fcfcfb" stroke-width="2"/>
<circle cx="255.9" cy="132.0" r="4" fill="#eb6834" stroke="#fcfcfb" stroke-width="2"/>
<circle cx="287.9" cy="132.0" r="4" fill="#eb6834" stroke="#fcfcfb" stroke-width="2"/>
<circle cx="319.8" cy="132.0" r="4" fill="#eb6834" stroke="#fcfcfb" stroke-width="2"/>
<circle cx="351.8" cy="132.0" r="4" fill="#eb6834" stroke="#fcfcfb" stroke-width="2"/>
<circle cx="383.8" cy="132.0" r="4" fill="#eb6834" stroke="#fcfcfb" stroke-width="2"/>
<circle cx="415.8" cy="132.0" r="4" fill="#eb6834" stroke="#fcfcfb" stroke-width="2"/>
<circle cx="447.8" cy="132.0" r="4" fill="#eb6834" stroke="#fcfcfb" stroke-width="2"/>
<circle cx="479.7" cy="132.0" r="4" fill="#eb6834" stroke="#fcfcfb" stroke-width="2"/>
<circle cx="511.7" cy="132.0" r="4" fill="#eb6834" stroke="#fcfcfb" stroke-width="2"/>
<circle cx="543.7" cy="132.0" r="4" fill="#eb6834" stroke="#fcfcfb" stroke-width="2"/>
<text x="570.0" y="136.0" font-size="12" font-weight="400" text-anchor="start" fill="#0b0b0b">build 1.1.0 (seeded): 26 ms</text>
<text x="570.0" y="208.0" font-size="12" font-weight="400" text-anchor="start" fill="#0b0b0b">build 1.0.0: 20 ms</text>
<text x="570.0" y="162.0" font-size="11" font-weight="400" text-anchor="start" fill="#52514e">allowed band</text>
<text x="570.0" y="176.0" font-size="11" font-weight="400" text-anchor="start" fill="#52514e">18 to 22 ms</text>
<line x1="64.0" y1="306.0" x2="82.0" y2="306.0" stroke="#2a78d6" stroke-width="2" stroke-linecap="round"/>
<circle cx="73.0" cy="306.0" r="4" fill="#2a78d6" stroke="#fcfcfb" stroke-width="2"/>
<text x="90.0" y="310.0" font-size="11" font-weight="400" text-anchor="start" fill="#52514e">Reference build 1.0.0</text>
<line x1="254.0" y1="306.0" x2="272.0" y2="306.0" stroke="#eb6834" stroke-width="2" stroke-linecap="round"/>
<circle cx="263.0" cy="306.0" r="4" fill="#eb6834" stroke="#fcfcfb" stroke-width="2"/>
<text x="280.0" y="310.0" font-size="11" font-weight="400" text-anchor="start" fill="#52514e">Seeded build 1.1.0</text>
</svg>
